{
  "accessors": [
    {
      "bufferView": 3,
      "componentType": 5126,
      "count": 15162,
      "max": [
        2.309940814971924,
        3.655686616897583,
        0.5343284606933594
      ],
      "min": [
        -2.3099558353424072,
        -2.3205511569976807,
        -0.5368029475212097
      ],
      "type": "VEC3"
    },
    {
      "bufferView": 3,
      "byteOffset": 181944,
      "componentType": 5126,
      "count": 15162,
      "max": [
        0.9999539852142334,
        0.9999213218688965,
        0.9999955296516418
      ],
      "min": [
        -0.9999539852142334,
        -0.9997866153717041,
        -0.9998257160186768
      ],
      "type": "VEC3"
    },
    {
      "bufferView": 2,
      "componentType": 5126,
      "count": 15162,
      "max": [
        1.0,
        1.0
      ],
      "min": [
        0.0,
        0.0
      ],
      "type": "VEC2"
    },
    {
      "bufferView": 1,
      "componentType": 5125,
      "count": 88860,
      "type": "SCALAR"
    },
    {
      "bufferView": 5,
      "componentType": 5126,
      "count": 64,
      "max": [
        1.0,
        0.33849528431892395,
        0.33807140588760376,
        0.0,
        0.28389880061149597,
        1.0,
        0.3384953737258911,
        0.0,
        0.33849528431892395,
        0.3227856159210205,
        1.0,
        0.0,
        0.7712333798408508,
        0.41651222109794617,
        0.8566923141479492,
        1.0
      ],
      "min": [
        -0.3227855861186981,
        -0.3384953737258911,
        -0.33807137608528137,
        0.0,
        -0.28389880061149597,
        -0.33811232447624207,
        -0.27766677737236023,
        0.0,
        -0.33849528431892395,
        -0.22499901056289673,
        -0.3382750451564789,
        0.0,
        -0.7712333798408508,
        -1.003509521484375,
        -0.8273036479949951,
        1.0
      ],
      "type": "MAT4"
    },
    {
      "bufferView": 0,
      "componentType": 5123,
      "count": 15162,
      "type": "VEC4"
    },
    {
      "bufferView": 4,
      "componentType": 5126,
      "count": 15162,
      "max": [
        1.0,
        0.49911752343177795,
        0.3253573179244995,
        0.19375303387641907
      ],
      "min": [
        0.29908621311187744,
        0.0,
        0.0,
        0.0
      ],
      "type": "VEC4"
    }
  ],
  "asset": {
    "extras": {
      "author": "willymouse (https://sketchfab.com/willymouse)",
      "license": "CC-BY-4.0 (http://creativecommons.org/licenses/by/4.0/)",
      "source": "https://sketchfab.com/3d-models/fnati-classic-undying-66b3d25d78bf44cdbd81e759536190cf",
      "title": "Fnati Classic Undying"
    },
    "generator": "Sketchfab-13.58.0",
    "version": "2.0"
  },
  "bufferViews": [
    {
      "buffer": 0,
      "byteLength": 121296,
      "byteStride": 8,
      "name": "shortBufferViews",
      "target": 34962
    },
    {
      "buffer": 0,
      "byteLength": 355440,
      "byteOffset": 121296,
      "name": "floatBufferViews",
      "target": 34963
    },
    {
      "buffer": 0,
      "byteLength": 121296,
      "byteOffset": 476736,
      "byteStride": 8,
      "name": "floatBufferViews",
      "target": 34962
    },
    {
      "buffer": 0,
      "byteLength": 363888,
      "byteOffset": 598032,
      "byteStride": 12,
      "name": "floatBufferViews",
      "target": 34962
    },
    {
      "buffer": 0,
      "byteLength": 242592,
      "byteOffset": 961920,
      "byteStride": 16,
      "name": "floatBufferViews",
      "target": 34962
    },
    {
      "buffer": 0,
      "byteLength": 4096,
      "byteOffset": 1204512,
      "name": "floatBufferViews"
    }
  ],
  "buffers": [
    {
      "byteLength": 1208608,
      "uri": "scene.bin"
    }
  ],
  "materials": [
    {
      "doubleSided": true,
      "name": "None",
      "pbrMetallicRoughness": {
        "baseColorFactor": [
          0.799103,
          0.0185001,
          0.0,
          1.0
        ],
        "metallicFactor": 0.0,
        "roughnessFactor": 0.186047
      }
    }
  ],
  "meshes": [
    {
      "name": "Object_0",
      "primitives": [
        {
          "attributes": {
            "JOINTS_0": 5,
            "NORMAL": 1,
            "POSITION": 0,
            "TEXCOORD_0": 2,
            "WEIGHTS_0": 6
          },
          "indices": 3,
          "material": 0,
          "mode": 4
        }
      ]
    }
  ],
  "nodes": [
    {
      "children": [
        1
      ],
      "matrix": [
        1.0,
        0.0,
        0.0,
        0.0,
        0.0,
        2.220446049250313e-16,
        -1.0,
        0.0,
        0.0,
        1.0,
        2.220446049250313e-16,
        0.0,
        0.0,
        0.0,
        0.0,
        1.0
      ],
      "name": "Sketchfab_model"
    },
    {
      "children": [
        2
      ],
      "name": "root"
    },
    {
      "children": [
        3
      ],
      "matrix": [
        1.0,
        0.0,
        0.0,
        0.0,
        0.0,
        2.220446049250313e-16,
        1.0,
        0.0,
        0.0,
        -1.0,
        2.220446049250313e-16,
        0.0,
        0.0,
        0.0,
        0.0,
        1.0
      ],
      "name": "GLTF_SceneRootNode"
    },
    {
      "children": [
        4
      ],
      "matrix": [
        2.9542510509490967,
        0.0,
        0.0,
        0.0,
        0.0,
        2.9542510509490967,
        0.0,
        0.0,
        0.0,
        0.0,
        2.9542510509490967,
        0.0,
        0.0,
        -2.297788143157959,
        0.0,
        1.0
      ],
      "name": "metarig_66"
    },
    {
      "children": [
        5,
        7,
        6
      ],
      "name": "GLTF_created_0"
    },
    {
      "children": [
        8
      ],
      "name": "GLTF_created_0_rootJoint"
    },
    {
      "name": "lowman_shoes_65"
    },
    {
      "mesh": 0,
      "name": "Object_7",
      "skin": 0
    },
    {
      "children": [
        9,
        59,
        65
      ],
      "name": "hips_64",
      "rotation": [
        0.10741975903511047,
        0.0,
        0.0,
        0.9942137598991394
      ],
      "scale": [
        1.0,
        1.0000001192092896,
        1.0000001192092896
      ],
      "translation": [
        0.0,
        1.0098999738693237,
        -0.0551999993622303
      ]
    },
    {
      "children": [
        10
      ],
      "name": "spine_51",
      "rotation": [
        -0.05466785654425621,
        0.0,
        0.0,
        0.9985045790672302
      ],
      "translation": [
        0.0,
        0.17790567874908447,
        -3.636224654712805e-09
      ]
    },
    {
      "children": [
        11,
        13,
        36
      ],
      "name": "chest_50",
      "rotation": [
        -0.0702504962682724,
        0.0,
        0.0,
        0.9975293874740601
      ],
      "scale": [
        1.0,
        0.9999999403953552,
        0.9999999403953552
      ],
      "translation": [
        0.0,
        0.15899008512496948,
        -6.5406959848246515e-09
      ]
    },
    {
      "children": [
        12
      ],
      "name": "neck_3",
      "rotation": [
        0.23270168900489807,
        0.039638862013816833,
        -0.004991058725863695,
        0.9717272520065308
      ],
      "scale": [
        1.0,
        0.9999999403953552,
        1.0000001192092896
      ],
      "translation": [
        0.0,
        0.3165912330150604,
        2.9220631247994788e-08
      ]
    },
    {
      "name": "head_2",
      "rotation": [
        0.016865774989128113,
        0.0027469387277960777,
        0.012419800274074078,
        0.9997768998146057
      ],
      "scale": [
        0.9999999403953552,
        0.9999999403953552,
        1.0000001192092896
      ],
      "translation": [
        -9.313225746154785e-10,
        0.12828397750854492,
        3.1231124353325868e-09
      ]
    },
    {
      "children": [
        14
      ],
      "name": "shoulder.L_26",
      "rotation": [
        -0.6032260060310364,
        -0.3447587788105011,
        -0.35720300674438477,
        0.6242321729660034
      ],
      "scale": [
        1.0,
        1.0,
        1.0000001192092896
      ],
      "translation": [
        0.01830000802874565,
        0.2607506215572357,
        0.07790685445070267
      ]
    },
    {
      "children": [
        15
      ],
      "name": "upper_arm.L_25",
      "rotation": [
        -0.24856504797935486,
        0.6672037839889526,
        -0.5462222695350647,
        0.4412434995174408
      ],
      "scale": [
        1.0,
        1.0000001192092896,
        1.0
      ],
      "translation": [
        0.00779145210981369,
        0.20079080760478973,
        -0.020384863018989563
      ]
    },
    {
      "children": [
        16
      ],
      "name": "forearm.L_24",
      "rotation": [
        0.17840103805065155,
        0.033729903399944305,
        0.01627407595515251,
        0.9832449555397034
      ],
      "scale": [
        0.9999997615814209,
        0.9999999403953552,
        0.9999999403953552
      ],
      "translation": [
        -1.5408924980420124e-07,
        0.30268850922584534,
        -4.09060234574099e-08
      ]
    },
    {
      "children": [
        17,
        24,
        28,
        32
      ],
      "name": "hand.L_23",
      "rotation": [
        0.14240515232086182,
        0.8538103699684143,
        -0.08021435141563416,
        0.49426138401031494
      ],
      "scale": [
        0.9999999403953552,
        1.0,
        1.0
      ],
      "translation": [
        -2.079807215338292e-09,
        0.27909597754478455,
        3.346693944195067e-08
      ]
    },
    {
      "children": [
        18,
        21
      ],
      "name": "palm.01.L_10",
      "rotation": [
        -0.13396118581295013,
        -0.2741750180721283,
        0.058932121843099594,
        0.9504785537719727
      ],
      "scale": [
        0.9999999403953552,
        1.0,
        0.9999998211860657
      ],
      "translation": [
        -0.022365812212228775,
        0.03809715434908867,
        -0.023781824856996536
      ]
    },
    {
      "children": [
        19
      ],
      "name": "f_index.01.L_6",
      "rotation": [
        0.08451668173074722,
        0.04657994955778122,
        -0.06408276408910751,
        0.9932676553726196
      ],
      "scale": [
        1.0,
        1.0,
        1.0000001192092896
      ],
      "translation": [
        2.9802322387695313e-08,
        0.08128315955400467,
        1.457519829273224e-07
      ]
    },
    {
      "children": [
        20
      ],
      "name": "f_index.02.L_5",
      "rotation": [
        0.07623928040266037,
        -0.04618270695209503,
        -0.007318649906665087,
        0.9959925413131714
      ],
      "scale": [
        0.9999998807907104,
        0.9999999403953552,
        0.9999998211860657
      ],
      "translation": [
        -2.313370472961651e-08,
        0.02131371945142746,
        7.504910115585517e-08
      ]
    },
    {
      "name": "f_index.03.L_4",
      "rotation": [
        0.09933019429445267,
        -0.09479080885648727,
        -0.08809948712587357,
        0.9866036176681519
      ],
      "scale": [
        0.9999997615814209,
        0.9999998211860657,
        0.9999998807907104
      ],
      "translation": [
        3.02362010984325e-08,
        0.03351275250315666,
        1.404614948796734e-07
      ]
    },
    {
      "children": [
        22
      ],
      "name": "thumb.01.L_9",
      "rotation": [
        0.20564457774162292,
        0.6618396043777466,
        0.34301018714904785,
        0.6340526342391968
      ],
      "scale": [
        1.0,
        1.0000001192092896,
        1.0
      ],
      "translation": [
        -0.01297945249825716,
        -0.016999073326587677,
        0.016614966094493866
      ]
    },
    {
      "children": [
        23
      ],
      "name": "thumb.02.L_8",
      "rotation": [
        0.09897751361131668,
        -0.009497357532382011,
        -0.09202656894922256,
        0.99077969789505
      ],
      "scale": [
        0.9999998807907104,
        0.9999998807907104,
        1.0
      ],
      "translation": [
        -1.8881532781733767e-08,
        0.03745025023818016,
        2.981130009516164e-08
      ]
    },
    {
      "name": "thumb.03.L_7",
      "rotation": [
        0.06108922138810158,
        -0.07317748665809631,
        0.11991672217845917,
        0.9881969094276428
      ],
      "scale": [
        1.0,
        0.9999999403953552,
        0.9999999403953552
      ],
      "translation": [
        1.490597014708328e-07,
        0.028380969539284706,
        5.8402495284326505e-08
      ]
    },
    {
      "children": [
        25
      ],
      "name": "palm.02.L_14",
      "rotation": [
        -0.11824692040681839,
        -0.30733534693717957,
        -0.11792109906673431,
        0.9368336796760559
      ],
      "scale": [
        0.9999998211860657,
        0.9999999403953552,
        0.9999998807907104
      ],
      "translation": [
        -0.007330690044909716,
        0.036153845489025116,
        -0.01567634753882885
      ]
    },
    {
      "children": [
        26
      ],
      "name": "f_middle.01.L_13",
      "rotation": [
        0.2057790756225586,
        -0.018289046362042427,
        0.1187896803021431,
        0.9711897373199463
      ],
      "scale": [
        0.9999998807907104,
        1.0000001192092896,
        0.9999999403953552
      ],
      "translation": [
        -3.679017979152377e-08,
        0.06728352606296539,
        -1.7521417206012302e-08
      ]
    },
    {
      "children": [
        27
      ],
      "name": "f_middle.02.L_12",
      "rotation": [
        0.10567127913236618,
        -0.06648405641317368,
        -0.06144173815846443,
        0.9902718663215637
      ],
      "scale": [
        0.9999998807907104,
        1.0,
        1.0
      ],
      "translation": [
        -2.294106593581091e-08,
        0.05389983952045441,
        -1.2949801941886108e-07
      ]
    },
    {
      "name": "f_middle.03.L_11",
      "rotation": [
        0.16465017199516296,
        -0.033587004989385605,
        -0.07139191776514053,
        0.9831914305686951
      ],
      "scale": [
        1.0000001192092896,
        1.0000001192092896,
        1.0000001192092896
      ],
      "translation": [
        -4.974284806280593e-08,
        0.03214576840400696,
        8.873577428403223e-08
      ]
    },
    {
      "children": [
        29
      ],
      "name": "palm.03.L_18",
      "rotation": [
        -0.11123844981193542,
        -0.32892656326293945,
        -0.18111930787563324,
        0.9201245307922363
      ],
      "scale": [
        0.9999998807907104,
        1.0,
        0.9999998807907104
      ],
      "translation": [
        0.003466869005933404,
        0.03125586360692978,
        -0.0055105192586779594
      ]
    },
    {
      "children": [
        30
      ],
      "name": "f_ring.01.L_17",
      "rotation": [
        0.2810225784778595,
        -0.010029582306742668,
        -0.0035671761725097895,
        0.9596421122550964
      ],
      "scale": [
        0.9999998807907104,
        1.0,
        1.0000001192092896
      ],
      "translation": [
        2.112393104880539e-08,
        0.0688183456659317,
        -2.242077385972152e-07
      ]
    },
    {
      "children": [
        31
      ],
      "name": "f_ring.02.L_16",
      "rotation": [
        0.07784289866685867,
        -0.028513021767139435,
        0.0818917527794838,
        0.993187427520752
      ],
      "scale": [
        1.0,
        1.0,
        0.9999999403953552
      ],
      "translation": [
        -9.313225746154785e-10,
        0.044677115976810455,
        1.4761462807655334e-07
      ]
    },
    {
      "name": "f_ring.03.L_15",
      "rotation": [
        0.14409008622169495,
        -0.08281289786100388,
        0.053168244659900665,
        0.98465895652771
      ],
      "scale": [
        0.9999999403953552,
        0.9999999403953552,
        0.9999999403953552
      ],
      "translation": [
        -6.640642169486455e-08,
        0.03255513310432434,
        -3.083799171577084e-08
      ]
    },
    {
      "children": [
        33
      ],
      "name": "palm.04.L_22",
      "rotation": [
        -0.07050294429063797,
        -0.3254249095916748,
        -0.23445969820022583,
        0.9133217334747314
      ],
      "scale": [
        1.0,
        0.9999999403953552,
        0.9999998807907104
      ],
      "translation": [
        0.01215451117604971,
        0.025027867406606674,
        0.005666427314281464
      ]
    },
    {
      "children": [
        34
      ],
      "name": "f_pinky.01.L_21",
      "rotation": [
        0.34832707047462463,
        -0.06354042887687683,
        0.005345170386135578,
        0.9352017641067505
      ],
      "scale": [
        0.9999999403953552,
        1.0,
        1.0
      ],
      "translation": [
        -1.1115283804485898e-08,
        0.07381825894117355,
        -4.130933461965469e-08
      ]
    },
    {
      "children": [
        35
      ],
      "name": "f_pinky.02.L_20",
      "rotation": [
        0.04272158816456795,
        -0.010774143971502781,
        -0.016052652150392532,
        0.9989000558853149
      ],
      "scale": [
        1.0000001192092896,
        1.0000001192092896,
        1.0
      ],
      "translation": [
        -3.725290298461914e-09,
        0.027849163860082626,
        2.7939677238464355e-09
      ]
    },
    {
      "name": "f_pinky.03.L_19",
      "rotation": [
        0.08462807536125183,
        -0.015071836300194263,
        -0.014691160060465336,
        0.9961903095245361
      ],
      "scale": [
        1.0,
        1.0,
        0.9999998807907104
      ],
      "translation": [
        2.0202547190706355e-08,
        0.022585006430745125,
        -6.298505894619666e-08
      ]
    },
    {
      "children": [
        37
      ],
      "name": "shoulder.R_49",
      "rotation": [
        -0.6032260060310364,
        0.3447587788105011,
        0.35720300674438477,
        0.6242321729660034
      ],
      "scale": [
        1.0,
        1.0,
        1.0000001192092896
      ],
      "translation": [
        -0.01830000802874565,
        0.2607506215572357,
        0.07790685445070267
      ]
    },
    {
      "children": [
        38
      ],
      "name": "upper_arm.R_48",
      "rotation": [
        -0.24070632457733154,
        -0.6701032519340515,
        0.5408294200897217,
        0.4478009045124054
      ],
      "scale": [
        1.0000001192092896,
        1.0000001192092896,
        1.0000001192092896
      ],
      "translation": [
        -0.00779145210981369,
        0.20079080760478973,
        -0.020384863018989563
      ]
    },
    {
      "children": [
        39
      ],
      "name": "forearm.R_47",
      "rotation": [
        0.17840102314949036,
        -0.03372989967465401,
        -0.016274068504571915,
        0.9832448959350586
      ],
      "scale": [
        0.9999998211860657,
        0.9999998211860657,
        0.9999998807907104
      ],
      "translation": [
        1.586194429137322e-07,
        0.3026886284351349,
        -2.6791168394879605e-08
      ]
    },
    {
      "children": [
        40,
        47,
        51,
        55
      ],
      "name": "hand.R_46",
      "rotation": [
        0.14240515232086182,
        -0.8538103699684143,
        0.08021434396505356,
        0.49426138401031494
      ],
      "scale": [
        1.0,
        0.9999999403953552,
        1.0
      ],
      "translation": [
        3.443558327376195e-08,
        0.2790960371494293,
        5.856466955833639e-08
      ]
    },
    {
      "children": [
        41,
        44
      ],
      "name": "palm.01.R_33",
      "rotation": [
        -0.13396118581295013,
        0.2741750180721283,
        -0.0589321106672287,
        0.9504785537719727
      ],
      "scale": [
        0.9999999403953552,
        0.9999998211860657,
        0.9999998211860657
      ],
      "translation": [
        0.022365868091583252,
        0.0380973145365715,
        -0.023781904950737953
      ]
    },
    {
      "children": [
        42
      ],
      "name": "f_index.01.R_29",
      "rotation": [
        0.08414346724748611,
        -0.04640350118279457,
        0.061944447457790375,
        0.9934432506561279
      ],
      "scale": [
        1.0000001192092896,
        1.000000238418579,
        1.000000238418579
      ],
      "translation": [
        -2.9802322387695313e-08,
        0.08128315955400467,
        1.457519829273224e-07
      ]
    },
    {
      "children": [
        43
      ],
      "name": "f_index.02.R_28",
      "rotation": [
        0.07692797482013702,
        0.04621197283267975,
        0.010842532850801945,
        0.9959061145782471
      ],
      "scale": [
        0.9999998807907104,
        1.0000001192092896,
        1.0000001192092896
      ],
      "translation": [
        -5.947034864561829e-08,
        0.021350033581256866,
        9.210042151153175e-08
      ]
    },
    {
      "name": "f_index.03.R_27",
      "rotation": [
        0.0992131233215332,
        0.09467340260744095,
        0.0867011547088623,
        0.9867505431175232
      ],
      "scale": [
        1.0,
        1.0000001192092896,
        1.0
      ],
      "translation": [
        -1.3272813959019913e-08,
        0.03348090127110481,
        -8.901738368649603e-08
      ]
    },
    {
      "children": [
        45
      ],
      "name": "thumb.01.R_32",
      "rotation": [
        0.2056446075439453,
        -0.6618396043777466,
        -0.34301021695137024,
        0.6340526342391968
      ],
      "scale": [
        1.0000001192092896,
        1.0000003576278687,
        1.0000001192092896
      ],
      "translation": [
        0.012979432009160519,
        -0.01699916273355484,
        0.016614891588687897
      ]
    },
    {
      "children": [
        46
      ],
      "name": "thumb.02.R_31",
      "rotation": [
        0.09897750616073608,
        0.00949736125767231,
        0.09202657639980316,
        0.99077969789505
      ],
      "scale": [
        0.9999999403953552,
        1.0,
        1.0
      ],
      "translation": [
        8.822306085676246e-08,
        0.03745020553469658,
        1.798095361493779e-08
      ]
    },
    {
      "name": "thumb.03.R_30",
      "rotation": [
        -0.11991667747497559,
        -0.9881969690322876,
        -0.061089206486940384,
        0.0731772780418396
      ],
      "scale": [
        1.0,
        0.9999997019767761,
        0.9999998211860657
      ],
      "translation": [
        -1.2078004374416196e-07,
        0.028380900621414185,
        4.5131802295372836e-08
      ]
    },
    {
      "children": [
        48
      ],
      "name": "palm.02.R_37",
      "rotation": [
        -0.1182466670870781,
        0.30733516812324524,
        0.11792101711034775,
        0.9368337392807007
      ],
      "scale": [
        0.9999997019767761,
        0.9999997615814209,
        0.9999998211860657
      ],
      "translation": [
        0.007330663967877626,
        0.03615397587418556,
        -0.015676330775022507
      ]
    },
    {
      "children": [
        49
      ],
      "name": "f_middle.01.R_36",
      "rotation": [
        0.20559348165988922,
        0.018477898091077805,
        -0.11965601146221161,
        0.9711191654205322
      ],
      "scale": [
        1.0,
        1.0000001192092896,
        1.0000001192092896
      ],
      "translation": [
        -2.24708838203469e-08,
        0.06728358566761017,
        1.6521080681286548e-07
      ]
    },
    {
      "children": [
        50
      ],
      "name": "f_middle.02.R_35",
      "rotation": [
        0.10601004958152771,
        0.06642171740531921,
        0.06385912746191025,
        0.9900869131088257
      ],
      "scale": [
        1.0,
        1.0000001192092896,
        1.0
      ],
      "translation": [
        7.583344086015131e-08,
        0.05391998589038849,
        -4.4972692236910916e-11
      ]
    },
    {
      "name": "f_middle.03.R_34",
      "rotation": [
        0.16458027064800262,
        0.03334691375494003,
        0.06986440718173981,
        0.9833210706710815
      ],
      "scale": [
        1.0,
        0.9999999403953552,
        0.9999998807907104
      ],
      "translation": [
        -1.4046613872054081e-09,
        0.032141175121068954,
        -3.7098786265232775e-08
      ]
    },
    {
      "children": [
        52
      ],
      "name": "palm.03.R_41",
      "rotation": [
        -0.11102712154388428,
        0.32900840044021606,
        0.18179547786712646,
        0.9199874401092529
      ],
      "scale": [
        1.0,
        0.9999998807907104,
        0.9999999403953552
      ],
      "translation": [
        -0.0033943639136850834,
        0.03128628060221672,
        -0.0055723353289067745
      ]
    },
    {
      "children": [
        53
      ],
      "name": "f_ring.01.R_40",
      "rotation": [
        0.28105711936950684,
        0.009818967431783676,
        0.0028730519115924835,
        0.9596365094184875
      ],
      "scale": [
        1.0,
        1.0,
        0.9999999403953552
      ],
      "translation": [
        1.0940540917658836e-08,
        0.06881503760814667,
        -2.0677182188677534e-10
      ]
    },
    {
      "children": [
        54
      ],
      "name": "f_ring.02.R_39",
      "rotation": [
        0.07784201204776764,
        0.028512941673398018,
        -0.0818917453289032,
        0.9931874871253967
      ],
      "scale": [
        0.9999999403953552,
        0.9999997615814209,
        0.9999998211860657
      ],
      "translation": [
        -3.4068065701831074e-08,
        0.044677119702100754,
        1.325259546547386e-07
      ]
    },
    {
      "name": "f_ring.03.R_38",
      "rotation": [
        0.14409182965755463,
        0.08281335234642029,
        -0.05316806212067604,
        0.9846586585044861
      ],
      "scale": [
        0.9999999403953552,
        0.9999999403953552,
        0.9999998807907104
      ],
      "translation": [
        -6.15468476183878e-09,
        0.032555218786001205,
        -7.744721131075494e-08
      ]
    },
    {
      "children": [
        56
      ],
      "name": "palm.04.R_45",
      "rotation": [
        -0.07050292938947678,
        0.3254249095916748,
        0.23445972800254822,
        0.9133217334747314
      ],
      "scale": [
        0.9999998807907104,
        0.9999998807907104,
        0.9999998807907104
      ],
      "translation": [
        -0.012154628522694111,
        0.025028007104992867,
        0.005666384007781744
      ]
    },
    {
      "children": [
        57
      ],
      "name": "f_pinky.01.R_44",
      "rotation": [
        0.34832707047462463,
        0.06354042887687683,
        -0.005345178302377462,
        0.9352017641067505
      ],
      "scale": [
        0.9999999403953552,
        0.9999999403953552,
        1.0
      ],
      "translation": [
        -7.681348890287154e-09,
        0.07381825894117355,
        -4.1119704974335036e-08
      ]
    },
    {
      "children": [
        58
      ],
      "name": "f_pinky.02.R_43",
      "rotation": [
        0.04272158816456795,
        0.010774140246212482,
        0.016052652150392532,
        0.9989000558853149
      ],
      "translation": [
        7.10661662850498e-09,
        0.027849165722727776,
        -1.2124417914094465e-08
      ]
    },
    {
      "name": "f_pinky.03.R_42",
      "rotation": [
        0.08462807536125183,
        0.015071840956807137,
        0.01469116285443306,
        0.9961903095245361
      ],
      "scale": [
        0.9999998807907104,
        0.9999998807907104,
        0.9999997615814209
      ],
      "translation": [
        9.03657770834343e-09,
        0.022584890946745872,
        -8.385610072991767e-08
      ]
    },
    {
      "children": [
        60
      ],
      "name": "thigh.L_57",
      "rotation": [
        0.9910818338394165,
        0.0950854942202568,
        -0.019291523844003677,
        0.09134260565042496
      ],
      "scale": [
        1.0,
        0.9999997615814209,
        1.0
      ],
      "translation": [
        0.09799996763467789,
        0.06980877369642258,
        0.02854793705046177
      ]
    },
    {
      "children": [
        61,
        63
      ],
      "name": "shin.L_56",
      "rotation": [
        0.06463391333818436,
        0.04181266948580742,
        0.012795520015060902,
        0.9969505667686462
      ],
      "scale": [
        0.9999999403953552,
        0.9999998807907104,
        0.9999999403953552
      ],
      "translation": [
        4.764692196346232e-09,
        0.472434401512146,
        1.3964229772511771e-08
      ]
    },
    {
      "children": [
        62
      ],
      "name": "foot.L_53",
      "rotation": [
        -0.5237421989440918,
        -0.10182372480630875,
        -0.057834841310977936,
        0.8437897562980652
      ],
      "scale": [
        0.9999999403953552,
        0.9999999403953552,
        1.0
      ],
      "translation": [
        3.597958553314129e-08,
        0.5382838249206543,
        1.5738642389351298e-08
      ]
    },
    {
      "name": "toe.L_52",
      "rotation": [
        0.03748726844787598,
        0.9519016742706299,
        -0.28401708602905273,
        0.10868380963802338
      ],
      "scale": [
        1.0000001192092896,
        1.0000001192092896,
        1.0
      ],
      "translation": [
        1.3708061352701861e-08,
        0.12480388581752777,
        2.8331772483625173e-09
      ]
    },
    {
      "children": [
        64
      ],
      "name": "heel.L_55",
      "rotation": [
        0.3004274070262909,
        -0.8690572381019592,
        -0.18118241429328918,
        0.3487919270992279
      ],
      "scale": [
        0.9999999403953552,
        1.0,
        0.9999999403953552
      ],
      "translation": [
        -1.4660346270289892e-09,
        0.5382838249206543,
        -2.822201317087547e-08
      ]
    },
    {
      "name": "heel.02.L_54",
      "rotation": [
        -0.5373493432998657,
        0.6151161789894104,
        -0.5769556760787964,
        0.0031536289025098085
      ],
      "scale": [
        1.0,
        1.0000001192092896,
        1.0000001192092896
      ],
      "translation": [
        -0.02654930204153061,
        0.023554638028144836,
        0.0357678085565567
      ]
    },
    {
      "children": [
        66
      ],
      "name": "thigh.R_63",
      "rotation": [
        0.9910818338394165,
        -0.0950854942202568,
        0.019291523844003677,
        0.09134260565042496
      ],
      "scale": [
        1.0,
        0.9999997615814209,
        1.0
      ],
      "translation": [
        -0.09799996763467789,
        0.06980877369642258,
        0.02854793705046177
      ]
    },
    {
      "children": [
        67,
        69
      ],
      "name": "shin.R_62",
      "rotation": [
        0.06463391333818436,
        -0.04181266948580742,
        -0.012795520015060902,
        0.9969505667686462
      ],
      "scale": [
        0.9999999403953552,
        0.9999998807907104,
        0.9999999403953552
      ],
      "translation": [
        -4.764692196346232e-09,
        0.472434401512146,
        1.3964229772511771e-08
      ]
    },
    {
      "children": [
        68
      ],
      "name": "foot.R_59",
      "rotation": [
        -0.5237421989440918,
        0.10182379186153412,
        0.05783480778336525,
        0.8437897562980652
      ],
      "scale": [
        0.9999999403953552,
        0.9999999403953552,
        1.0
      ],
      "translation": [
        -3.507941670477521e-08,
        0.5382838249206543,
        1.9829679231975206e-08
      ]
    },
    {
      "name": "toe.R_58",
      "rotation": [
        0.03748723119497299,
        -0.9519017934799194,
        0.2840171158313751,
        0.10868371278047562
      ],
      "scale": [
        1.0,
        0.9999996423721313,
        0.9999999403953552
      ],
      "translation": [
        4.822737764698104e-08,
        0.12480385601520538,
        2.0341861528549998e-10
      ]
    },
    {
      "children": [
        70
      ],
      "name": "heel.R_61",
      "rotation": [
        0.3004273772239685,
        0.869057297706604,
        0.18118242919445038,
        0.34879180788993835
      ],
      "translation": [
        -3.673425297279209e-08,
        0.5382838249206543,
        1.8828460568443006e-08
      ]
    },
    {
      "name": "heel.02.R_60",
      "rotation": [
        -0.5373494625091553,
        -0.6151162981987,
        0.5769555568695068,
        0.003153531812131405
      ],
      "scale": [
        1.0,
        0.9999998211860657,
        1.0
      ],
      "translation": [
        0.026549316942691803,
        0.023554634302854538,
        0.035767827183008194
      ]
    }
  ],
  "scene": 0,
  "scenes": [
    {
      "name": "Sketchfab_Scene",
      "nodes": [
        0
      ]
    }
  ],
  "skins": [
    {
      "inverseBindMatrices": 4,
      "joints": [
        5,
        8,
        9,
        10,
        11,
        12,
        13,
        14,
        15,
        16,
        17,
        18,
        19,
        20,
        21,
        22,
        23,
        24,
        25,
        26,
        27,
        28,
        29,
        30,
        31,
        32,
        33,
        34,
        35,
        36,
        37,
        38,
        39,
        40,
        41,
        42,
        43,
        44,
        45,
        46,
        47,
        48,
        49,
        50,
        51,
        52,
        53,
        54,
        55,
        56,
        57,
        58,
        59,
        60,
        61,
        62,
        63,
        64,
        65,
        66,
        67,
        68,
        69,
        70
      ],
      "skeleton": 5
    }
  ]
}
